#!OML:ASF F:\VICON\USERDATA\INSTALL\rory3\rory3.ASF
:FULLY-SPECIFIED
:DEGREES
1890
root -0.0243889 18.3329 6.54313 19.4488 -9.71491 -3.48239
lowerback -5.63408 -4.2929 1.82396
upperback -7.72304 -5.72255 3.55843
thorax -4.68192 -2.88443 2.59
lowerneck -4.21767 -12.2673 -12.7497
upperneck 14.5365 -16.194 4.41759
head 6.52719 -8.28276 2.09584
rclavicle 7.19787e-014 -7.7526e-015
rhumerus -46.4276 9.38594 -85.2004
rradius 54.4251
rwrist 10.9373
rhand -23.0406 -36.0172
rfingers 7.12502
rthumb 3.40385 -785.97
lclavicle 7.19787e-014 -7.7526e-015
lhumerus -47.0436 -11.4833 87.2026
lradius 49.887
lwrist -3.10047
lhand -30.598 -41.314
lfingers 7.12502
lthumb -3.89494 -11.3698
rfemur -37.9483 12.3079 16.8703
rtibia 39.8498
rfoot -6.29318 6.6375
rtoes -25.3265
lfemur -29.7128 -3.6252 -9.53068
ltibia 38.7472
lfoot 1.05473 -0.800717
ltoes -20.2874
1891
root -0.00226645 18.159 6.51599 20.0225 -9.39642 -4.25927
lowerback -5.93075 -4.32532 2.42011
upperback -7.79968 -5.78321 3.80135
thorax -4.63295 -2.93981 2.49363
lowerneck -4.47502 -12.3035 -12.8092
upperneck 14.4326 -16.2257 4.59422
head 6.55954 -8.28207 2.13989
rclavicle -4.15243e-014 8.74653e-015
rhumerus -46.4223 8.54374 -84.5594
rradius 54.7263
rwrist 10.8644
rhand -22.0014 -36.5679
rfingers 7.12502
rthumb 4.40738 -786.502
lclavicle -4.15243e-014 8.74653e-015
lhumerus -46.5601 -11.2852 87.0206
lradius 49.2618
lwrist -3.50032
lhand -30.5904 -41.1344
lfingers 7.12502
lthumb -3.88756 -11.1901
rfemur -38.568 12.1244 18.0781
rtibia 40.3473
rfoot -5.94031 6.11782
rtoes -24.8118
lfemur -30.3332 -3.44091 -8.93386
ltibia 39.5387
lfoot -1.41314 -1.42772
ltoes -19.9576
1892
root 0.0168117 17.9626 6.46096 20.3121 -9.24469 -4.41874
lowerback -5.65569 -4.44039 2.16168
upperback -7.92358 -5.91355 3.95441
thorax -4.87317 -2.98775 2.82425
lowerneck -4.72391 -12.2962 -12.7569
upperneck 14.2844 -16.1859 4.63623
head 6.5491 -8.24999 2.13826
rclavicle -8.22751e-014 -1.78906e-014
rhumerus -46.5061 7.99125 -83.9799
rradius 55.4396
rwrist 10.6531
rhand -21.076 -37.598
rfingers 7.12502
rthumb 5.301 -787.512
lclavicle -8.22751e-014 -1.78906e-014
lhumerus -46.0772 -11.0056 86.7875
lradius 48.8247
lwrist -3.65199
lhand -30.4274 -41.0632
lfingers 7.12502
lthumb -3.7302 -11.1161
rfemur -39.2867 12.0503 18.6333
rtibia 41.1804
rfoot -5.02669 5.38112
rtoes -24.6131
lfemur -30.9183 -3.32321 -9.02869
ltibia 40.5895
lfoot -4.62037 0.296673
ltoes -22.4807
1893
root 0.0328856 17.7549 6.4142 20.8345 -9.16917 -4.83891
lowerback -5.73313 -4.48852 2.14894
upperback -8.02138 -5.97381 4.16899
thorax -4.90896 -3.01267 3.05232
lowerneck -5.18733 -12.306 -12.4718
upperneck 14.209 -16.1492 4.54964
head 6.56766 -8.21233 2.04997
rclavicle 5.7368e-015 -1.25234e-014
rhumerus -46.524 7.46391 -83.43
rradius 56.125
rwrist 10.2215
rhand -20.9522 -36.881
rfingers 7.12502
rthumb 5.42052 -786.792
lclavicle 5.7368e-015 -1.25234e-014
lhumerus -45.6034 -10.7405 86.5434
lradius 48.6231
lwrist -3.62259
lhand -30.1493 -41.1133
lfingers 7.12502
lthumb -3.46162 -11.1617
rfemur -40.2411 12.0605 19.443
rtibia 42.2634
rfoot -4.90366 5.22659
rtoes -25.1095
lfemur -31.7558 -2.90603 -8.8864
ltibia 41.8552
lfoot -8.16151 2.03557
ltoes -24.5903
1894
root 0.0489267 17.5404 6.36676 21.3873 -9.13205 -5.02264
lowerback -6.01607 -4.48269 1.99271
upperback -8.018 -5.97402 4.22888
thorax -4.72421 -3.00531 3.17278
lowerneck -5.46818 -12.3976 -12.2954
upperneck 13.7329 -16.2723 4.81332
head 6.47888 -8.23447 2.08812
rclavicle 6.21513e-015 -4.94974e-014
rhumerus -46.2803 6.64334 -82.8817
rradius 56.5817
rwrist 9.58366
rhand -21.1322 -36.9206
rfingers 7.12502
rthumb 5.24672 -786.836
lclavicle 6.21513e-015 -4.94974e-014
lhumerus -44.9257 -10.7221 86.2601
lradius 48.5265
lwrist -3.54779
lhand -29.9929 -41.5471
lfingers 7.12502
lthumb -3.31057 -11.5931
rfemur -41.356 11.9178 20.0264
rtibia 43.6147
rfoot -6.53892 6.38342
rtoes -18.0049
lfemur -32.7501 -2.29922 -9.04447
ltibia 43.2151
lfoot -11.926 3.94775
ltoes -25.0026
1895
root 0.0699338 17.3351 6.31423 21.7173 -8.94859 -5.06975
lowerback -6.06566 -4.53146 1.90359
upperback -7.9645 -6.04212 4.1945
thorax -4.63104 -3.03661 3.17554
lowerneck -5.49657 -12.4845 -12.2265
upperneck 12.9998 -16.4191 5.2392
head 6.29126 -8.2684 2.21091
rclavicle -2.70502e-014 3.05134e-014
rhumerus -45.9232 5.67684 -82.3583
rradius 57.1176
rwrist 9.51938
rhand -20.3381 -39.8296
rfingers 7.12502
rthumb 6.01343 -789.724
lclavicle -2.70502e-014 3.05134e-014
lhumerus -44.2672 -10.5692 85.8217
lradius 48.6481
lwrist -3.59426
lhand -29.8386 -41.8317
lfingers 7.12502
lthumb -3.1616 -11.8754
rfemur -42.2406 11.6441 20.5151
rtibia 45.0818
rfoot -9.74997 4.34281
rtoes -17.0782
lfemur -33.6235 -1.78991 -9.32349
ltibia 44.5837
lfoot -15.339 5.77052
ltoes -24.4084
1896
root 0.0927433 17.14 6.25871 21.993 -8.70811 -5.2268
lowerback -5.90591 -4.60861 1.97767
upperback -8.0173 -6.13888 4.2366
thorax -4.77667 -3.08713 3.19577
lowerneck -5.31543 -12.5545 -12.412
upperneck 12.3768 -16.5522 5.70696
head 6.13004 -8.31235 2.39159
rclavicle 4.06887e-015 3.19546e-014
rhumerus -45.8011 4.84926 -81.7797
rradius 57.8229
rwrist 10.1211
rhand -20.3323 -40.1577
rfingers 7.12502
rthumb 6.01897 -790.052
lclavicle 4.06887e-015 3.19546e-014
lhumerus -43.9929 -10.1683 85.439
lradius 49.097
lwrist -3.57455
lhand -29.9782 -42.1826
lfingers 7.12502
lthumb -3.2964 -12.2283
rfemur -43.0538 11.5641 21.0211
rtibia 46.6218
rfoot -12.5899 2.04386
rtoes -16.8001
lfemur -34.5273 -1.31832 -9.44218
ltibia 45.9197
lfoot -18.0398 7.40631
ltoes -24.6937
